<svg width="120px" height="51px" viewBox="0 0 120 51" version="1.1" xmlns="http://www.w3.org/2000/svg" xmlns:xlink="http://www.w3.org/1999/xlink">
  <title>Letra Studio</title>
  <g id="Website-Logo" fill="currentColor" fill-rule="evenodd">
    <path d="M.98 0h3.75v16.92h9.21v3.29H.98V0zm18.2 0h13.5v3.3h-9.75V8.3h9.5v3.27h-9.5v5.34h9.87v3.29H19.17V0zm18.26 0h15.93v3.26h-6.1v16.95h-3.74V3.26h-6.1V0zm27.93 14.4h-3.1v5.8h-3.74V0h8.89a7.1 7.1 0 0 1 7.33 7.19 7.1 7.1 0 0 1-4.88 6.84l5.78 6.18h-4.97l-5.31-5.8zm1.56-3.23A3.87 3.87 0 0 0 71 7.2c0-2.22-1.59-3.96-4.07-3.96h-4.65v7.94h4.65zm32.56 9.04h-4.01l-1.36-3.52h-9.35L83.4 20.2H79.4L88.03 0h2.83l8.63 20.2zM89.44 4.4l-3.52 9.19h7.05l-3.53-9.18zM3.58 44.69c.29 1.9 1.5 3.26 3.81 3.26 2.1 0 3.44-1.13 3.44-2.95 0-1.53-.99-2.45-2.66-2.91l-2.6-.72c-3.12-.87-5.14-2.4-5.14-5.49 0-3.7 2.95-5.89 6.7-5.89 3.9 0 6.35 2.63 6.53 5.98h-3.44c-.14-1.65-1.21-2.92-3.12-2.92-1.87 0-2.97.98-2.97 2.51 0 1.56 1.12 2.17 2.77 2.63l2.51.72c3 .87 5.08 2.54 5.08 5.8 0 3.87-3.4 6.3-7.21 6.3C3 51 .43 48.46 0 44.68h3.58zm30.81-11.03H28.3V50.6h-3.75V33.65h-6.1v-3.26H34.4v3.26zm18.8-3.26h3.76v12.24c0 5.05-3.64 8.37-8.72 8.37s-8.72-3.32-8.72-8.37V30.39h3.75V42.7c0 3.2 2.05 5 4.97 5s4.97-1.8 4.97-5V30.4zm10.77 20.2V30.4h5.95c7.94 0 12.12 4.62 12.12 10.1 0 5.49-4.18 10.1-12.12 10.1h-5.95zm3.75-3.17h1.88c5.66 0 8.69-2.63 8.69-6.93s-3.03-6.93-8.7-6.93h-1.87v13.86zm20.4 3.18V30.39h3.76v20.2h-3.75zm20.6-20.62c6.44 0 10.74 4.65 10.74 10.51 0 5.86-4.3 10.51-10.74 10.51-6.4 0-10.74-4.62-10.74-10.5 0-5.87 4.33-10.52 10.74-10.52zm-6.98 10.51c0 3.87 2.62 7.28 6.98 7.28 4.4 0 6.99-3.41 6.99-7.28 0-3.9-2.6-7.27-6.99-7.27-4.36 0-6.98 3.37-6.98 7.27z" id="Letra-Studio-Logo"></path>
  </g>
</svg>